<svg width="30" height="30" viewBox="0 0 30 30" fill="none" xmlns="http://www.w3.org/2000/svg">
<path d="M14.7696 8.02224L15.8266 7.02518L18.1023 4.86949L16.6391 3H12.9001L11.4414 4.86949L13.5602 6.87747L14.7696 8.02224Z" stroke="black" stroke-width="0.5" stroke-linecap="round" stroke-linejoin="round"/>
<path d="M18.7574 6.73438C22.7319 8.31767 25.5384 12.2044 25.5384 16.7419C25.5384 22.692 20.7146 27.5111 14.7692 27.5111C8.82375 27.5111 4 22.6874 4 16.7419C4 12.2321 6.77423 8.36845 10.7071 6.76207" stroke="black" stroke-width="0.5" stroke-linecap="round" stroke-linejoin="round"/>
<path d="M17.8019 9.22693C20.8208 10.4317 22.9534 13.3814 22.9534 16.8341C22.9534 21.3532 19.2883 25.0184 14.7692 25.0184C10.2501 25.0184 6.58496 21.3532 6.58496 16.8341C6.58496 13.4044 8.68987 10.4686 11.6811 9.25001" stroke="black" stroke-width="0.5" stroke-linecap="round" stroke-linejoin="round"/>
</svg>
