<svg width="30" height="30" viewBox="0 0 30 30" fill="none" xmlns="http://www.w3.org/2000/svg">
<path fill-rule="evenodd" clip-rule="evenodd" d="M11.7822 2.25C11.6442 2.25 11.5322 2.36193 11.5322 2.5V8.27734H9C8.86193 8.27734 8.75 8.38927 8.75 8.52734V28C8.75 28.138 8.86193 28.25 9 28.25H20.1272C20.2653 28.25 20.3772 28.138 20.3772 28V8.52734C20.3772 8.38927 20.2653 8.27734 20.1272 8.27734H17.5958V2.5C17.5958 2.36193 17.4839 2.25 17.3458 2.25H11.7822ZM12.0322 8.25V2.75H17.0958V8.25H12.0322ZM9.25 27.75V8.77734H19.8772V27.75H9.25Z" fill="black"/>
<rect x="10.8545" y="15.9453" width="7.41816" height="3.70907" stroke="black" stroke-width="0.5" stroke-linejoin="round"/>
</svg>
