<svg width="30" height="30" viewBox="0 0 30 30" fill="none" xmlns="http://www.w3.org/2000/svg">
<path d="M15.002 28.0259V5.17777M15.002 5.17777L12.7113 1.63763M15.002 5.17777L11.0923 6.13686V2.52633M12.7113 1.63763H15.002H17.2926M12.7113 1.63763L5.83925 5.11618C5.63101 5.22177 5.50195 5.43294 5.50195 5.66758V26.1106H8.20325V9.00534M18.9146 2.52633V6.13393L15.0049 5.17484L17.2926 1.63763M17.2926 1.63763L24.1647 5.11618C24.3729 5.22177 24.502 5.43294 24.502 5.66758V26.1458H21.8007V9.00534M8.20325 25.8965V28.0347H21.8007V25.8965" stroke="black" stroke-width="0.5" stroke-linecap="round" stroke-linejoin="round"/>
<path d="M8.20312 18.7663H10.6932" stroke="black" stroke-width="0.5" stroke-linecap="round" stroke-linejoin="round"/>
<path d="M19.3105 18.7663H21.8007" stroke="black" stroke-width="0.5" stroke-linecap="round" stroke-linejoin="round"/>
</svg>
