<svg width="30" height="30" viewBox="0 0 30 30" fill="none" xmlns="http://www.w3.org/2000/svg">
<path d="M7.64526 20.2905C10.7631 20.2905 13.2905 17.7631 13.2905 14.6453C13.2905 11.5275 10.7631 9 7.64526 9C4.52747 9 2 11.5275 2 14.6453C2 17.7631 4.52747 20.2905 7.64526 20.2905Z" stroke="black" stroke-width="0.5" stroke-miterlimit="10" stroke-linecap="round"/>
<path d="M22.3542 20.2905C25.472 20.2905 27.9995 17.7631 27.9995 14.6453C27.9995 11.5275 25.472 9 22.3542 9C19.2365 9 16.709 11.5275 16.709 14.6453C16.709 17.7631 19.2365 20.2905 22.3542 20.2905Z" stroke="black" stroke-width="0.5" stroke-miterlimit="10" stroke-linecap="round"/>
<path d="M13.3232 14.577C13.7927 14.3443 14.3745 14.2079 15.0004 14.2079C15.6263 14.2079 16.188 14.3403 16.6534 14.565" stroke="black" stroke-width="0.5" stroke-miterlimit="10" stroke-linecap="round"/>
</svg>
