<?xml version="1.0" encoding="utf-8"?>
<!-- Generator: Adobe Illustrator 27.1.1, SVG Export Plug-In . SVG Version: 6.00 Build 0)  -->
<svg version="1.1" xmlns="http://www.w3.org/2000/svg" xmlns:xlink="http://www.w3.org/1999/xlink" x="0px" y="0px"
	 viewBox="0 0 30 30" style="enable-background:new 0 0 30 30;" xml:space="preserve">
<g id="レイヤー_1">
</g>
<g id="base">
</g>
<g id="icon">
	<g>
		<g>
			<g>
				<g id="グループ_1303_00000085234838838723082640000013669196427433588873_" transform="translate(-132)">
					<path d="M157.9,26.05H136.1c-0.14,0-0.25-0.11-0.25-0.25V10.43c0-0.14,0.11-0.25,0.25-0.25h21.81c0.14,0,0.25,0.11,0.25,0.25
						V25.8C158.15,25.94,158.04,26.05,157.9,26.05z M147.26,25.55h10.39V10.68h-10.39V25.55z M136.35,25.55h10.41V10.68h-10.41
						V25.55z"/>
				</g>
			</g>
		</g>
		<path d="M15.01,10.7c-0.03,0-0.06,0-0.09-0.02C11.4,9.4,9.08,7.66,8.85,6.15C8.76,5.54,9.01,4.99,9.57,4.56
			c0.43-0.32,0.89-0.42,1.39-0.28c2.18,0.62,4.2,5.86,4.28,6.08c0.04,0.09,0.01,0.2-0.06,0.26C15.14,10.68,15.08,10.7,15.01,10.7z
			 M10.52,4.72c-0.23,0-0.44,0.08-0.65,0.24c-0.42,0.32-0.6,0.69-0.53,1.12c0.19,1.24,2.21,2.76,5.22,3.94
			c-0.71-1.69-2.3-4.84-3.74-5.25C10.72,4.74,10.62,4.72,10.52,4.72z"/>
		<path d="M15.01,10.7c-0.07,0-0.13-0.03-0.18-0.07c-0.07-0.07-0.09-0.17-0.06-0.26c0.08-0.22,2.11-5.46,4.29-6.08
			c0.49-0.14,0.96-0.05,1.39,0.27c0.57,0.43,0.82,0.98,0.73,1.59c-0.23,1.51-2.56,3.25-6.08,4.53C15.07,10.7,15.04,10.7,15.01,10.7z
			 M19.5,4.72c-0.1,0-0.2,0.01-0.3,0.04c-1.44,0.41-3.03,3.56-3.74,5.25c3.01-1.18,5.04-2.7,5.22-3.94c0.06-0.43-0.11-0.8-0.53-1.12
			C19.94,4.8,19.72,4.72,19.5,4.72z"/>
	</g>
</g>
</svg>
