<svg width="30" height="30" viewBox="0 0 30 30" fill="none" xmlns="http://www.w3.org/2000/svg">
<path d="M8.22294 9.75603V27.4803L5.15137 27.438V6.49986C5.15137 6.25777 5.28452 6.03988 5.49938 5.93094L11.9996 2.15125H14.9985H17.9975L24.5007 5.93094C24.7156 6.03988 24.8487 6.25777 24.8487 6.49986V27.438L21.7772 27.4803V9.75603" stroke="black" stroke-width="0.5" stroke-linecap="round" stroke-linejoin="round"/>
<path d="M8.32324 25.5497H21.6505" stroke="black" stroke-width="0.5" stroke-linecap="round" stroke-linejoin="round"/>
<path d="M13 25.3645V15.1875L19.6879 8.09411L17.3244 6L13 15.1875" stroke="black" stroke-width="0.5" stroke-linecap="round" stroke-linejoin="round"/>
<path d="M14.986 10.906L12.7376 6.12769L10.3711 8.2218L14.2749 12.4524" stroke="black" stroke-width="0.5" stroke-linecap="round" stroke-linejoin="round"/>
<path d="M12.7378 2.15125V6.12764H9.26074L9.89321 3.53723" stroke="black" stroke-width="0.5" stroke-linecap="round" stroke-linejoin="round"/>
<path d="M20.1005 3.53723L20.7329 6.12764H17.2559V2.15125" stroke="black" stroke-width="0.5" stroke-linecap="round" stroke-linejoin="round"/>
<path d="M15.2106 17.4758C15.5265 17.4758 15.7826 17.2197 15.7826 16.9039C15.7826 16.588 15.5265 16.3319 15.2106 16.3319C14.8947 16.3319 14.6387 16.588 14.6387 16.9039C14.6387 17.2197 14.8947 17.4758 15.2106 17.4758Z" stroke="black" stroke-width="0.5" stroke-linecap="round" stroke-linejoin="round"/>
<path d="M15.2106 21.1799C15.5265 21.1799 15.7826 20.9238 15.7826 20.608C15.7826 20.2921 15.5265 20.036 15.2106 20.036C14.8947 20.036 14.6387 20.2921 14.6387 20.608C14.6387 20.9238 14.8947 21.1799 15.2106 21.1799Z" stroke="black" stroke-width="0.5" stroke-linecap="round" stroke-linejoin="round"/>
<path d="M19.1504 13.0667H21.7226" stroke="black" stroke-width="0.5" stroke-linecap="round" stroke-linejoin="round"/>
</svg>
