<svg width="30" height="30" viewBox="0 0 30 30" fill="none" xmlns="http://www.w3.org/2000/svg">
<g clip-path="url(#clip0_1682_892)">
<path fill-rule="evenodd" clip-rule="evenodd" d="M13.6335 3.51378C13.6335 3.09958 13.9698 2.76605 14.3812 2.76605H20.9002C21.3144 2.76605 21.6479 3.10234 21.6479 3.51378V13.5455C21.871 13.9576 22.1139 14.6422 22.2207 15.4151C22.333 16.2271 22.299 17.1654 21.9065 18.0008C21.5226 18.8207 20.6563 19.7835 18.7754 19.9761C18.2891 20.4304 17.6828 21.2794 17.0168 22.2151L16.942 22.3201H16.9387C16.1887 23.3735 15.3774 24.504 14.4958 25.4094C13.5876 26.3422 12.5718 27.0715 11.4314 27.2088L11.4303 27.2089C11.3056 27.2234 11.1807 27.2306 11.0558 27.2306C10.229 27.2306 9.44301 26.8999 8.71592 26.2711L8.71123 26.2671L8.71128 26.267C7.97909 25.6014 7.64271 24.8319 7.60352 24.0083C7.5648 23.1946 7.81673 22.3476 8.22154 21.5139C9.02611 19.857 10.4784 18.1685 11.6817 16.7695L11.6946 16.7545L11.6947 16.7544L11.7217 16.7229C12.1396 16.2363 12.5423 15.7675 12.8827 15.3415C13.2122 14.9292 13.4738 14.5685 13.6335 14.279V3.51378ZM18.785 19.4721C20.4371 19.2849 21.1435 18.4514 21.4538 17.7886L21.4539 17.7882C21.7912 17.0704 21.8299 16.239 21.7255 15.4835C21.636 14.8367 21.4446 14.2666 21.2685 13.9016C20.6958 14.0735 19.8267 14.5807 19.0989 16.0733L19.0951 16.0811L19.0908 16.0885C19.005 16.2375 18.343 17.4686 18.785 19.4721ZM21.1479 7.62646V5.89984H14.1335V7.62646H21.1479ZM21.1479 8.12646V13.4159C20.4354 13.623 19.4475 14.2218 18.6531 15.8467C18.5111 16.0963 17.7966 17.5018 18.3276 19.7142C17.8354 20.2091 17.2645 21.005 16.6842 21.8201H16.6808L16.6061 21.9251C15.8302 23.0153 15.0167 24.1577 14.1376 25.0606C13.2559 25.9662 12.3411 26.5955 11.3722 26.7123C11.2666 26.7245 11.1612 26.7306 11.0558 26.7306C10.3735 26.7306 9.70046 26.4607 9.04533 25.895C8.41037 25.3168 8.13565 24.6715 8.10295 23.9845C8.06975 23.2868 8.28569 22.5265 8.67132 21.7323C9.44475 20.1395 10.8561 18.4962 12.0737 17.0805L12.0739 17.0803L12.1042 17.045L12.1042 17.0449L12.1043 17.0449C12.5197 16.5613 12.9273 16.0867 13.2733 15.6536C13.6258 15.2125 13.9252 14.8013 14.105 14.4579L14.1335 14.4034V14.3419V8.12646H21.1479ZM14.1335 5.39984H21.1479V3.51378C21.1479 3.37739 21.0372 3.26605 20.9002 3.26605H14.3812C14.2448 3.26605 14.1335 3.37681 14.1335 3.51378V5.39984Z" fill="black"/>
</g>
<defs>
<clipPath id="clip0_1682_892">
<rect width="15" height="25.2369" fill="white" transform="translate(7.43945 2.38159)"/>
</clipPath>
</defs>
</svg>
