<svg width="30" height="30" viewBox="0 0 30 30" fill="none" xmlns="http://www.w3.org/2000/svg">
<path fill-rule="evenodd" clip-rule="evenodd" d="M5.75 6C5.75 5.86193 5.86193 5.75 6 5.75H20.5C20.6381 5.75 20.75 5.86193 20.75 6V8.75L23.5 8.75C26.3995 8.75 28.75 11.1005 28.75 14C28.75 16.8995 26.3995 19.25 23.5 19.25H20.75V25C20.75 25.1381 20.6381 25.25 20.5 25.25H6C5.86193 25.25 5.75 25.1381 5.75 25V6ZM20.75 10.75V9.25L23.5 9.25C26.1234 9.25 28.25 11.3766 28.25 14C28.25 16.6234 26.1234 18.75 23.5 18.75H20.75V17.25H23.5C25.2949 17.25 26.75 15.7949 26.75 14C26.75 12.2051 25.2949 10.75 23.5 10.75H20.75ZM20.75 11.25V16.75H23.5C25.0188 16.75 26.25 15.5188 26.25 14C26.25 12.4812 25.0188 11.25 23.5 11.25H20.75ZM20.25 10.75L20.25 9V8.75L20.25 6.25H6.25V24.75H20.25V19.25V19V17.25V17V11V10.75Z" fill="black"/>
</svg>
