<svg xmlns="http://www.w3.org/2000/svg" xmlns:xlink="http://www.w3.org/1999/xlink" width="632.995" height="389" viewBox="0 0 632.995 389">
  <defs>
    <clipPath id="clip-path">
      <rect id="長方形_722" data-name="長方形 722" width="430" height="68.284"/>
    </clipPath>
  </defs>
  <g id="グループ_1790" data-name="グループ 1790" transform="translate(-119 -3410)">
    <g id="グループ_1522" data-name="グループ 1522" transform="translate(119 3410)">
      <rect id="長方形_266" data-name="長方形 266" width="632.995" height="389" fill="none"/>
    </g>
    <g id="グループ_1748" data-name="グループ 1748" transform="translate(220.498 3570.358)">
      <path id="パス_1456" data-name="パス 1456" d="M24.9,18.221l9.816,21.466H14.764Zm1.277-12.45L0,61.311H4.628L13.169,43.2H36.391l8.3,18.114h9.335L28.409,5.771Z" transform="translate(0 2.983)"/>
      <path id="パス_1457" data-name="パス 1457" d="M74.3.842v3.51H54.674V55.1h-9.1V4.352H25.945V.842Z" transform="translate(13.412 0.435)"/>
      <path id="パス_1458" data-name="パス 1458" d="M97.089,6.192V9.7H77.458V60.454h-9.1V9.7H48.729V6.192Z" transform="translate(25.19 3.201)"/>
      <rect id="長方形_720" data-name="長方形 720" width="9.178" height="54.263" transform="translate(127.118 9.392)"/>
      <g id="グループ_1746" data-name="グループ 1746" transform="translate(0 0)">
        <g id="グループ_1745" data-name="グループ 1745" clip-path="url(#clip-path)">
          <path id="パス_1459" data-name="パス 1459" d="M114.2,58.736a14.716,14.716,0,0,0,3.991-.558,11.217,11.217,0,0,0,3.51-1.637,8.787,8.787,0,0,0,2.474-2.673,6.987,6.987,0,0,0,.957-3.671,8.11,8.11,0,0,0-2.194-5.666,24.714,24.714,0,0,0-5.506-4.389q-3.313-1.993-7.183-3.83a52.017,52.017,0,0,1-7.183-4.109,23.4,23.4,0,0,1-5.5-5.186,11.394,11.394,0,0,1-2.195-7.063,14.426,14.426,0,0,1,1.156-5.786A12.714,12.714,0,0,1,99.951,9.54,16.636,16.636,0,0,1,105.5,6.468a23.449,23.449,0,0,1,7.58-1.118q7.741,0,12.17,3.233a18.1,18.1,0,0,1,6.424,9.376l-4.628,2.154a18.259,18.259,0,0,0-5.147-8.1q-3.472-3.072-9.3-3.072a12.72,12.72,0,0,0-4.469.718,9.8,9.8,0,0,0-3.192,1.875,7.735,7.735,0,0,0-1.916,2.594,7.192,7.192,0,0,0-.639,2.952,6.968,6.968,0,0,0,2.275,5.108,29.021,29.021,0,0,0,5.664,4.229q3.393,2,7.383,3.99a63.5,63.5,0,0,1,7.381,4.31,25.469,25.469,0,0,1,5.666,5.186,10.483,10.483,0,0,1,2.274,6.7,14.908,14.908,0,0,1-1.236,6.025,13.843,13.843,0,0,1-3.671,4.947,17.923,17.923,0,0,1-6.065,3.352,26.415,26.415,0,0,1-8.5,1.236q-7.821,0-12.409-3.351A19.716,19.716,0,0,1,94.325,49.4L99.273,47.4a16.076,16.076,0,0,0,5.666,8.339,15,15,0,0,0,9.256,2.993" transform="translate(48.761 2.765)"/>
          <path id="パス_1460" data-name="パス 1460" d="M160.432,6.192V9.7H131.863V29.094h19.073V32.6H131.863V56.944h28.569v3.51H122.686V6.192Z" transform="translate(63.421 3.2)"/>
          <path id="パス_1461" data-name="パス 1461" d="M169.45,53.386a14.7,14.7,0,0,0,3.99-.558,11.209,11.209,0,0,0,3.512-1.637,8.788,8.788,0,0,0,2.474-2.673,6.987,6.987,0,0,0,.957-3.671,8.11,8.11,0,0,0-2.193-5.666,24.713,24.713,0,0,0-5.507-4.389q-3.313-1.993-7.183-3.83a52.015,52.015,0,0,1-7.183-4.109,23.4,23.4,0,0,1-5.505-5.186,11.394,11.394,0,0,1-2.2-7.063,14.425,14.425,0,0,1,1.156-5.786,12.714,12.714,0,0,1,3.433-4.628,16.635,16.635,0,0,1,5.546-3.072A23.449,23.449,0,0,1,168.332,0q7.741,0,12.17,3.233a18.1,18.1,0,0,1,6.424,9.376L182.3,14.763a18.258,18.258,0,0,0-5.147-8.1q-3.472-3.072-9.3-3.072a12.721,12.721,0,0,0-4.469.718,9.806,9.806,0,0,0-3.192,1.875,7.715,7.715,0,0,0-1.916,2.594,7.193,7.193,0,0,0-.639,2.952,6.972,6.972,0,0,0,2.274,5.108,29.081,29.081,0,0,0,5.666,4.229q3.393,2,7.383,3.99a63.505,63.505,0,0,1,7.381,4.31,25.472,25.472,0,0,1,5.666,5.186,10.483,10.483,0,0,1,2.274,6.7,14.908,14.908,0,0,1-1.236,6.025,13.843,13.843,0,0,1-3.671,4.947,17.922,17.922,0,0,1-6.065,3.352,26.415,26.415,0,0,1-8.5,1.236q-7.821,0-12.409-3.351a19.716,19.716,0,0,1-6.823-9.417l4.948-1.995a16.077,16.077,0,0,0,5.666,8.339,15,15,0,0,0,9.256,2.993" transform="translate(77.324 0)"/>
          <path id="パス_1462" data-name="パス 1462" d="M194.964,60.945a14.717,14.717,0,0,0,3.991-.558,11.227,11.227,0,0,0,3.512-1.637,8.807,8.807,0,0,0,2.474-2.673,7,7,0,0,0,.956-3.671A8.1,8.1,0,0,0,203.7,46.74a24.675,24.675,0,0,0-5.506-4.389q-3.313-1.993-7.183-3.83a52.1,52.1,0,0,1-7.183-4.109,23.394,23.394,0,0,1-5.5-5.186,11.393,11.393,0,0,1-2.194-7.063,14.451,14.451,0,0,1,1.154-5.786,12.714,12.714,0,0,1,3.433-4.628,16.627,16.627,0,0,1,5.547-3.072,23.433,23.433,0,0,1,7.579-1.118q7.741,0,12.17,3.233a18.1,18.1,0,0,1,6.424,9.376l-4.628,2.154a18.244,18.244,0,0,0-5.147-8.1q-3.472-3.072-9.3-3.072a12.721,12.721,0,0,0-4.469.718,9.82,9.82,0,0,0-3.192,1.875,7.715,7.715,0,0,0-1.916,2.594,7.215,7.215,0,0,0-.637,2.952A6.968,6.968,0,0,0,185.43,24.4a28.968,28.968,0,0,0,5.663,4.229q3.393,2,7.383,3.99a63.5,63.5,0,0,1,7.381,4.31,25.406,25.406,0,0,1,5.666,5.186,10.483,10.483,0,0,1,2.274,6.7,14.908,14.908,0,0,1-1.235,6.025,13.88,13.88,0,0,1-3.671,4.947,17.953,17.953,0,0,1-6.065,3.352,26.432,26.432,0,0,1-8.5,1.236q-7.821,0-12.409-3.351a19.725,19.725,0,0,1-6.823-9.417l4.948-1.995a16.076,16.076,0,0,0,5.666,8.339,15,15,0,0,0,9.256,2.993" transform="translate(90.514 3.907)"/>
          <rect id="長方形_721" data-name="長方形 721" width="9.178" height="54.263" transform="translate(307.598 9.391)"/>
          <path id="パス_1463" data-name="パス 1463" d="M242,62.167a30.372,30.372,0,0,1-21.268-8.46,28.866,28.866,0,0,1-6.344-9.137,27.153,27.153,0,0,1-2.315-11.131,26.159,26.159,0,0,1,2.315-10.933,28.379,28.379,0,0,1,6.344-8.938,29.719,29.719,0,0,1,9.5-6.025,32.683,32.683,0,0,1,23.543,0,29.737,29.737,0,0,1,9.5,6.025,28.4,28.4,0,0,1,6.344,8.938,26.182,26.182,0,0,1,2.315,10.933,27.177,27.177,0,0,1-2.315,11.131,28.891,28.891,0,0,1-6.344,9.137A30.373,30.373,0,0,1,242,62.167m0-2.714a16.91,16.91,0,0,0,8.22-1.955,17.52,17.52,0,0,0,6.024-5.426,25.9,25.9,0,0,0,3.712-8.219,40.1,40.1,0,0,0,1.277-10.414,38.875,38.875,0,0,0-1.277-10.255,24.529,24.529,0,0,0-3.712-8.02,17.21,17.21,0,0,0-6.024-5.226A17.51,17.51,0,0,0,242,8.062a17.859,17.859,0,0,0-8.38,1.876,16.852,16.852,0,0,0-5.984,5.226,24.372,24.372,0,0,0-3.631,8.02,39.954,39.954,0,0,0-1.238,10.255,41.216,41.216,0,0,0,1.238,10.414,25.735,25.735,0,0,0,3.631,8.219A16.622,16.622,0,0,0,242,59.453" transform="translate(109.631 2.765)"/>
          <path id="パス_1464" data-name="パス 1464" d="M253.741,5.771h5.107l35.592,39.66h.4V5.771h3.99v55.54h-2.074L258.21,17.181h-.319V60.033h-4.15Z" transform="translate(131.17 2.983)"/>
        </g>
      </g>
    </g>
  </g>
</svg>
