<?xml version="1.0" encoding="utf-8"?>
<!-- Generator: Adobe Illustrator 27.8.1, SVG Export Plug-In . SVG Version: 6.00 Build 0)  -->
<svg version="1.1" id="レイヤー_1" xmlns="http://www.w3.org/2000/svg" xmlns:xlink="http://www.w3.org/1999/xlink" x="0px"
	 y="0px" viewBox="0 0 633 389" style="enable-background:new 0 0 633 389;" xml:space="preserve">
<style type="text/css">
	.st0{fill:none;}
	.st1{fill:#58774C;}
</style>
<g id="グループ_1583" transform="translate(-1554 -561.08)">
	<g id="グループ_906" transform="translate(1554 561.08)">
		<rect id="長方形_255" x="0.13" y="0.22" class="st0" width="632.99" height="389"/>
	</g>
	<g id="グループ_1577" transform="translate(-102.932 -85.995)">
		<g id="グループ_1576" transform="translate(1790 728)">
			<g>
				<g id="グループ_1575" transform="translate(0 0)">
					<path id="パス_1250" class="st1" d="M170.29,85.63c3.86,3.41,8.05,6.42,12.52,8.99c0.09,0.05,0.21,0.05,0.3,0
						c4.47-2.56,8.67-5.57,12.54-8.98c5.73-5.11,12.57-13.09,12.57-22.1c0-17.1-24.73-62.7-24.99-63.16
						c-0.05-0.1-0.15-0.16-0.27-0.16c-0.12,0-0.22,0.06-0.28,0.16c-0.24,0.46-24.97,46.06-24.97,63.16
						C157.72,72.55,164.56,80.53,170.29,85.63"/>
					<path id="パス_1251" d="M89.3,183.53L89.3,183.53c-1.76,1.49-2.65,3.88-2.65,7.1v9.46h2.01v-9.46c0-2.55,0.63-4.41,1.88-5.54
						c1.22-1.02,2.77-1.53,4.36-1.45c1.6-0.07,3.17,0.44,4.42,1.45c1.26,1.13,1.89,2.99,1.89,5.54v9.46h2v-9.46
						c0-3.23-0.89-5.61-2.65-7.1c-1.59-1.26-3.59-1.92-5.62-1.84C92.89,181.61,90.89,182.26,89.3,183.53"/>
					<path id="パス_1252" d="M0.13,191.09L0.13,191.09c-0.08,5.12,4.01,9.33,9.13,9.41c0.17,0,0.33,0,0.5-0.01
						c2.86,0.08,5.58-1.26,7.28-3.57v0.87c0.12,4.03-3.06,7.4-7.09,7.52c-0.05,0-0.1,0-0.15,0c-1.68-0.01-3.3-0.58-4.62-1.62
						c-0.8-0.63-1.47-1.42-1.97-2.32l-0.26-0.42H0.78l0.34,0.77c1.6,3.4,5.04,5.56,8.8,5.52c5.12-0.08,9.2-4.3,9.11-9.41
						c0-0.07,0-0.13-0.01-0.2v-6.89l-0.01-0.18c-0.06-1.27-0.36-2.51-0.9-3.66c-1.56-3.25-4.87-5.29-8.47-5.23
						c-5.11-0.15-9.37,3.87-9.52,8.98C0.13,190.8,0.13,190.95,0.13,191.09 M9.66,183.62c4.12,0.03,7.44,3.4,7.4,7.53
						c-0.03,4.04-3.27,7.31-7.3,7.4c-4.06,0.15-7.47-3.01-7.62-7.07c0-0.13-0.01-0.27,0-0.4c-0.12-4,3.03-7.35,7.04-7.46
						C9.33,183.61,9.5,183.61,9.66,183.62"/>
					<path id="パス_1253" d="M33.55,181.72c-1.63-0.04-3.24,0.38-4.65,1.2c-2.42,1.56-2.75,3.83-2.75,6.03v11.14h2v-11.02
						c0-2.42,0.49-3.61,1.87-4.52c1.08-0.64,2.32-0.97,3.57-0.94l0.53-0.02v-1.89L33.55,181.72z"/>
					<path id="パス_1254" d="M53.7,194.41c-1.21,2.59-3.84,4.21-6.69,4.13c-3.86,0.01-7.08-2.96-7.36-6.81h16.69l0.07-1
						c-0.13-5.08-4.32-9.12-9.4-9.05c-5.19-0.16-9.52,3.92-9.68,9.11c-0.16,5.19,3.92,9.52,9.11,9.68c0.18,0.01,0.37,0.01,0.55,0
						c3.79,0.12,7.25-2.12,8.72-5.61l0.19-0.47h-2.17L53.7,194.41z M47.01,183.61h0.03c3.6,0.01,6.67,2.62,7.26,6.18H39.71
						C40.24,186.19,43.37,183.54,47.01,183.61"/>
					<path id="パス_1255" d="M77.95,194.41c-1.21,2.59-3.84,4.21-6.69,4.13c-3.86,0.02-7.08-2.96-7.37-6.81h16.7l0.07-1
						c-0.13-5.08-4.32-9.11-9.4-9.05c-5.19-0.16-9.53,3.92-9.69,9.1c-0.16,5.19,3.92,9.53,9.1,9.69c0.18,0.01,0.36,0.01,0.55,0
						c3.79,0.12,7.26-2.12,8.72-5.61l0.2-0.47h-2.2L77.95,194.41z M71.26,183.61h0.02c3.6,0.01,6.67,2.62,7.25,6.18H63.96
						C64.49,186.18,67.62,183.54,71.26,183.61"/>
					<path id="パス_1256" d="M124.63,175.45h-1.45v24.64h2v-24.64H124.63z"/>
					<path id="パス_1257" d="M206.78,175.45h-1.45v24.64h2v-24.64H206.78z"/>
					<path id="パス_1258" d="M131.38,191.09L131.38,191.09c-0.08,5.11,4,9.32,9.11,9.41c0.17,0,0.34,0,0.51-0.01
						c2.87,0.08,5.59-1.26,7.29-3.57v3.15l2-0.02l-0.01-9.3l-0.01-0.18c-0.05-1.27-0.35-2.51-0.89-3.66
						c-2.36-4.69-8.07-6.58-12.76-4.22C133.43,184.29,131.41,187.53,131.38,191.09 M140.91,183.62c4.12,0.03,7.44,3.41,7.4,7.53
						c-0.03,4.12-3.41,7.44-7.53,7.4c-4.1-0.03-7.41-3.37-7.4-7.47c-0.1-4.02,3.08-7.36,7.1-7.46
						C140.62,183.62,140.77,183.62,140.91,183.62"/>
					<path id="パス_1259" d="M158.17,175.44l-1.44,0.01l0.01,15.97v0.18c0.06,1.27,0.36,2.51,0.89,3.66
						c2.27,4.71,7.93,6.69,12.64,4.41c4.71-2.27,6.69-7.93,4.41-12.64c-1.6-3.32-4.99-5.41-8.68-5.35
						c-2.87-0.08-5.59,1.26-7.28,3.57v-9.82L158.17,175.44z M158.68,191.09c-0.12-4,3.01-7.34,7.01-7.46c0.11,0,0.22,0,0.33,0
						c4.05-0.15,7.46,3.01,7.61,7.06c0.01,0.13,0.01,0.27,0,0.4c0,4.13-3.35,7.48-7.48,7.48
						C162.03,198.57,158.69,195.22,158.68,191.09"/>
					<path id="パス_1260" d="M196.82,194.41c-1.21,2.59-3.83,4.21-6.68,4.13c-3.86,0.02-7.08-2.96-7.37-6.81h16.69l0.06-1
						c-0.18-5.2-4.53-9.28-9.74-9.1c-5.2,0.18-9.28,4.53-9.1,9.74c0.17,5.08,4.34,9.11,9.42,9.11c3.79,0.12,7.25-2.12,8.71-5.61
						l0.2-0.47h-2.19L196.82,194.41z M190.13,183.61h0.02c3.6,0.01,6.67,2.62,7.26,6.18h-14.59
						C183.35,186.18,186.49,183.53,190.13,183.61"/>
					<path id="パス_1261" d="M308.27,182.31c0,0-5.25,6.27-5.98,7.15c-0.74-0.88-6.13-7.35-6.13-7.35l-2.65,0.01
						c0,0,6.94,8.3,7.49,8.94c-0.55,0.65-7.5,9.02-7.5,9.02l2.67-0.02c0,0,5.38-6.49,6.12-7.39c0.74,0.89,6.14,7.39,6.14,7.39
						l2.61,0.02c0,0-6.93-8.37-7.47-9.02l7.45-8.94l-2.58-0.01L308.27,182.31z"/>
					<path id="パス_1262" d="M318.04,175.45h-1.45v4h2v-4H318.04z M318.04,182.13h-1.45v17.96h2v-17.96L318.04,182.13z"/>
					<path id="パス_1263" d="M328.64,183.53L328.64,183.53c-1.76,1.49-2.65,3.88-2.65,7.1v9.46h2v-9.46
						c0-2.55,0.64-4.41,1.88-5.54c1.22-1.01,2.77-1.53,4.36-1.45c1.6-0.07,3.17,0.44,4.41,1.45c1.27,1.13,1.89,2.99,1.89,5.54v9.46
						h1.99v-9.46c0-3.23-0.89-5.61-2.64-7.1C336.54,181.08,331.99,181.08,328.64,183.53"/>
					<path id="パス_1264" d="M348.09,191.09L348.09,191.09c-0.08,5.12,4.01,9.33,9.13,9.41c0.17,0,0.33,0,0.5-0.01
						c2.86,0.07,5.58-1.26,7.28-3.57v0.87c0.12,4.03-3.06,7.4-7.09,7.52c-0.05,0-0.1,0-0.15,0c-1.68-0.02-3.3-0.59-4.62-1.63
						c-0.8-0.63-1.47-1.42-1.97-2.31l-0.26-0.41h-2.17l0.34,0.77c1.6,3.4,5.04,5.55,8.8,5.52c5.12-0.08,9.2-4.3,9.11-9.42
						c0-0.07,0-0.13-0.01-0.2l-0.01-6.88v-0.18c-0.06-1.27-0.36-2.51-0.9-3.66c-2.36-4.69-8.07-6.58-12.76-4.22
						C350.14,184.28,348.12,187.52,348.09,191.09 M357.61,183.62c4.12,0.03,7.44,3.41,7.4,7.53c-0.03,4.12-3.41,7.44-7.53,7.4
						c-4.1-0.03-7.4-3.37-7.4-7.47c-0.1-4.02,3.08-7.36,7.11-7.46C357.33,183.61,357.47,183.61,357.61,183.62"/>
					<path id="パス_1265" d="M263.06,175.45h-1.45v24.64h2v-24.64H263.06z"/>
					<path id="パス_1266" d="M269.99,191.09L269.99,191.09c-0.08,5.12,4.01,9.33,9.13,9.41c0.17,0,0.33,0,0.5-0.01
						c2.86,0.07,5.58-1.26,7.28-3.57v3.15l2-0.02v-9.3l-0.01-0.18c-0.06-1.27-0.36-2.51-0.9-3.66c-2.36-4.69-8.07-6.58-12.76-4.22
						C272.04,184.29,270.02,187.53,269.99,191.09 M279.51,183.62c4.12,0.03,7.44,3.4,7.4,7.53c-0.03,4.12-3.4,7.44-7.53,7.4
						c-4.1-0.03-7.41-3.37-7.4-7.47c-0.1-4.02,3.08-7.36,7.1-7.46C279.23,183.62,279.37,183.62,279.51,183.62"/>
					<path id="パス_1267" d="M233.06,181.72c-1.63-0.04-3.24,0.37-4.64,1.2c-2.42,1.56-2.76,3.83-2.76,6.03v11.14h1.99v-11.02
						c0-2.42,0.49-3.61,1.88-4.52c1.08-0.64,2.32-0.97,3.57-0.94l0.52-0.02v-1.89L233.06,181.72z"/>
					<path id="パス_1268" d="M252.83,194.41c-1.21,2.59-3.83,4.21-6.69,4.13c-3.86,0.02-7.08-2.96-7.37-6.81h16.69l0.07-1
						c-0.17-5.21-4.53-9.28-9.74-9.11s-9.28,4.53-9.11,9.74c0.17,5.08,4.34,9.12,9.42,9.12c3.79,0.12,7.25-2.12,8.71-5.61l0.21-0.47
						h-2.2L252.83,194.41z M246.14,183.61h0.03c3.6,0.01,6.67,2.62,7.25,6.18h-14.58C239.36,186.18,242.49,183.54,246.14,183.61"/>
					<rect id="長方形_693" x="120.81" y="140.86" width="1.68" height="14.26"/>
					<path id="パス_1269" d="M137.89,140.85h-8.5v1.46h3.42v12.8h1.68v-12.8h3.41V140.85z"/>
					<path id="パス_1270" d="M171.59,147.98c0.08-3.85-2.97-7.04-6.82-7.12c-0.1,0-0.19,0-0.29,0l0,0h-3.96v14.27l3.91-0.01h0.05
						c3.85,0.07,7.03-2.99,7.11-6.84C171.59,148.18,171.59,148.08,171.59,147.98L171.59,147.98z M164.43,153.76h-2.27V142.2h2.27
						v0.01c3.09-0.04,5.63,2.43,5.67,5.53c0,0.08,0,0.16,0,0.24v0.02c0.09,3.1-2.35,5.68-5.44,5.77
						C164.59,153.76,164.51,153.76,164.43,153.76"/>
					<path id="パス_1271" d="M153.26,142.31v-1.46h-8.19v0.01h-0.1v14.26h0.1v0.01h8.19v-1.47h-6.62v-5.3h6.2v-1.46h-6.2v-4.58
						H153.26z"/>
					<path id="パス_1272" d="M110.81,140.86v11.47L103,140.86h-2.35v14.26h1.67v-12.43l8.5,12.43h1.67v-14.26H110.81z"/>
					<path id="パス_1273" d="M269.31,141.08l-2.75,10.83l-2.85-10.71v-0.01h-1.53l0.01,0.01l-2.87,10.71l-2.76-10.83h-1.62
						l0.07,0.27l3.55,13.55h1.52l2.86-11.15l2.86,11.15h1.52l3.63-13.82H269.31z"/>
					<path id="パス_1274" d="M93.2,140.76h-1.56v9.32c0.07,1.99-1.49,3.66-3.49,3.73c-0.07,0-0.13,0-0.2,0h-0.01
						c-2,0.04-3.65-1.55-3.69-3.54c0-0.06,0-0.12,0-0.19v-9.32H82.7l0.01,9.62c0.1,2.81,2.43,5.02,5.23,4.96h0.03
						c2.81,0.05,5.13-2.16,5.23-4.96L93.2,140.76z"/>
					<path id="パス_1275" d="M195.02,155.12h1.67l-4.97-14.26h-1.68l-4.97,14.26h1.67l1.5-4.43h5.29L195.02,155.12z
						 M188.68,149.35l2.19-6.47l2.2,6.47H188.68z"/>
					<path id="パス_1276" d="M227.8,155.12h1.88l-3.46-6.04c1.91-0.39,3.27-2.09,3.24-4.04h0.01V145h-0.01
						c0.04-2.17-1.63-3.98-3.79-4.12l0.02,0.01l-0.37-0.02h-3l0,0h-1.55v14.26h1.55v-5.94h2.25L227.8,155.12z M222.33,142.27h2.98
						c1.4-0.03,2.57,1.04,2.68,2.43l0.01,0.32l-0.01,0.32c-0.1,1.39-1.28,2.47-2.68,2.43h-2.98V142.27z"/>
					<path id="パス_1277" d="M210.84,155.12h1.89l-3.46-6.04c1.92-0.39,3.28-2.09,3.25-4.04V145c0.04-2.17-1.63-3.99-3.8-4.12
						l0.02,0.01l-0.37-0.02h-2.99l0,0h-1.55v14.26h1.55v-5.94h2.24L210.84,155.12z M205.38,142.27h2.97
						c1.4-0.03,2.57,1.04,2.68,2.43l0.02,0.32l-0.02,0.32c-0.1,1.39-1.28,2.46-2.68,2.43h-2.97V142.27z"/>
					<path id="パス_1278" d="M242.95,140.79c-3.87-0.15-7.14,2.86-7.29,6.73c-0.01,0.17-0.01,0.33,0,0.5
						c-0.01,4,3.23,7.25,7.23,7.26c4,0.01,7.25-3.23,7.26-7.23C250.16,144.07,246.94,140.82,242.95,140.79 M243.01,153.76
						c-3.12,0.12-5.74-2.31-5.86-5.43c0-0.1-0.01-0.21,0-0.31c-0.01-3.18,2.56-5.76,5.74-5.76c3.18-0.01,5.76,2.56,5.76,5.74
						C248.66,151.13,246.15,153.7,243.01,153.76"/>
					<path id="パス_1279" d="M284.96,151.01c0.01-1.12-0.48-2.18-1.33-2.91c-0.83-0.62-1.79-1.03-2.81-1.2
						c-0.68-0.14-1.33-0.39-1.93-0.74c-0.58-0.35-0.92-0.98-0.89-1.66c-0.02-1.3,1.02-2.37,2.32-2.39c0.08,0,0.16,0,0.24,0.01l0,0
						c1.31-0.03,2.43,0.95,2.55,2.26l1.5-0.02c-0.14-2.11-1.93-3.72-4.04-3.64c-2.22,0-4.09,1.35-4.1,3.65
						c-0.02,1.05,0.42,2.06,1.2,2.76c0.77,0.55,1.66,0.91,2.59,1.07c0.8,0.14,1.56,0.45,2.23,0.92c0.59,0.48,0.93,1.19,0.95,1.94
						c0.05,1.45-1.08,2.66-2.52,2.71c-0.13,0-0.25,0-0.38-0.01c-1.53,0.02-2.85-1.09-3.09-2.61l-1.49-0.01
						c0.05,2.4,2.16,3.94,4.52,3.94c2.3,0.16,4.3-1.57,4.47-3.88C284.95,151.15,284.95,151.08,284.96,151.01"/>
				</g>
			</g>
		</g>
	</g>
</g>
</svg>
