<svg xmlns="http://www.w3.org/2000/svg" xmlns:xlink="http://www.w3.org/1999/xlink" width="632.995" height="389" viewBox="0 0 632.995 389">
  <defs>
    <clipPath id="clip-path">
      <rect id="長方形_715" data-name="長方形 715" width="474" height="97.06" fill="none"/>
    </clipPath>
  </defs>
  <g id="グループ_1778" data-name="グループ 1778" transform="translate(-119 -1036)">
    <g id="グループ_1519" data-name="グループ 1519" transform="translate(119 1036)">
      <g id="グループ_920" data-name="グループ 920">
        <rect id="長方形_257" data-name="長方形 257" width="632.995" height="389" fill="none"/>
      </g>
    </g>
    <g id="グループ_1777" data-name="グループ 1777" transform="translate(198 1185)">
      <g id="グループ_1776" data-name="グループ 1776" transform="translate(0 0)" clip-path="url(#clip-path)">
        <path id="パス_1379" data-name="パス 1379" d="M16.372,5.764C6.424,5.764,0,13.127,0,24.507c0,6.644,2.222,12.409,6.1,15.817,2.87,2.56,6.005,3.653,10.477,3.653,9.711,0,15.748-7.22,15.748-18.846,0-5.752-1.569-10.716-4.529-14.353C25,7.406,21.263,5.764,16.372,5.764M27.329,25.131c0,8.959-4.158,14.524-10.854,14.524-7.113,0-11.533-5.859-11.533-15.3,0-8.867,4.338-14.373,11.324-14.373,6.824,0,11.064,5.806,11.064,15.148" transform="translate(0 6.31)"/>
        <path id="パス_1380" data-name="パス 1380" d="M43.307,7.73C40.777,6.49,38.1,6.111,31.829,6.111H21.458V42.876h9.851c4.533,0,7.057-.314,9.656-1.194a12.2,12.2,0,0,0,5.119-3.295c3.1-3.192,4.8-8.278,4.8-14.309,0-7.777-2.905-14.043-7.574-16.349M45.94,24.182c0,4.654-1.1,8.376-3.272,11.07-2.095,2.576-4.816,3.406-11.2,3.406H26.135V10.273h6.158a26.043,26.043,0,0,1,5.653.362C44.9,11.88,45.94,19.657,45.94,24.182" transform="translate(23.489 6.69)"/>
        <path id="パス_1381" data-name="パス 1381" d="M46.035,26.085H63.751V21.814H46.035V10.432H65.454V6.11H41.249V42.871h25.4V38.554H46.035Z" transform="translate(45.153 6.689)"/>
        <path id="パス_1382" data-name="パス 1382" d="M58.612,10.432H69.458v32.44H74.24V10.432h10.9V6.11H58.612Z" transform="translate(64.159 6.689)"/>
        <path id="パス_1383" data-name="パス 1383" d="M75.072,10.432H85.918v32.44H90.7V10.432h10.9V6.11H75.072Z" transform="translate(82.177 6.689)"/>
        <path id="パス_1384" data-name="パス 1384" d="M98.333,26.085h17.721V21.814H98.333V10.432h19.424V6.11H93.551V42.871h25.4V38.554H98.333Z" transform="translate(102.406 6.689)"/>
        <path id="パス_1385" data-name="パス 1385" d="M125.635,26.085h17.721V21.814H125.635V10.432h19.424V6.11H120.853V42.871h25.4V38.554H125.635Z" transform="translate(132.291 6.689)"/>
        <path id="パス_1386" data-name="パス 1386" d="M162.383,5.764c-9.941,0-16.368,7.363-16.368,18.743,0,6.64,2.222,12.4,6.091,15.817,2.878,2.56,6.014,3.653,10.484,3.653,9.711,0,15.748-7.22,15.748-18.846,0-5.752-1.565-10.716-4.529-14.353-2.792-3.372-6.527-5.015-11.426-5.015m10.961,19.367c0,8.959-4.162,14.524-10.854,14.524-7.113,0-11.533-5.859-11.533-15.3,0-8.867,4.342-14.373,11.324-14.373,6.824,0,11.064,5.806,11.064,15.148" transform="translate(159.835 6.31)"/>
        <path id="パス_1387" data-name="パス 1387" d="M188.835,7.73c-2.528-1.24-5.209-1.619-11.479-1.619H166.977V42.876h9.862c4.529,0,7.055-.314,9.652-1.194a12.261,12.261,0,0,0,5.124-3.295c3.085-3.192,4.79-8.278,4.79-14.309,0-7.777-2.9-14.043-7.57-16.349m2.633,16.451c0,4.654-1.1,8.376-3.274,11.07-2.095,2.576-4.818,3.406-11.206,3.406h-5.327V10.273h6.156a26.086,26.086,0,0,1,5.658.362c6.954,1.244,7.993,9.022,7.993,13.546" transform="translate(182.781 6.69)"/>
        <rect id="長方形_713" data-name="長方形 713" width="4.679" height="36.765" transform="translate(392.918 12.8)"/>
        <path id="パス_1388" data-name="パス 1388" d="M201.879,6.111H197.2V42.872h23.332V38.555H201.879Z" transform="translate(215.864 6.69)"/>
        <path id="パス_1389" data-name="パス 1389" d="M218.953,38.554V26.085h17.721V21.818H218.953V10.432h19.419V6.11H214.167V42.876h25.4V38.554Z" transform="translate(234.437 6.689)"/>
        <path id="パス_1390" data-name="パス 1390" d="M133.346,3.461,130.607,0l-7.359,6.334,2.235,2.826Z" transform="translate(134.913 0.001)"/>
        <path id="パス_1391" data-name="パス 1391" d="M68.075,47.649c0,3.525-.344,5.306-1.345,6.741-1.265,1.8-3.414,2.723-6.37,2.723-2.865,0-5.048-.859-6.25-2.666s-1.32-3.584-1.32-6.6V36.466h2.436v12.3a8.075,8.075,0,0,0,.859,4.1,4.868,4.868,0,0,0,4.336,2.063c1.946,0,3.469-.54,4.355-1.975a8.45,8.45,0,0,0,.863-4.33V36.466h2.436Z" transform="translate(57.786 39.918)"/>
        <path id="パス_1392" data-name="パス 1392" d="M76.677,56.713c-3.643-5.651-7.57-11.613-10.9-16.921.057,1.376.084,7.141.084,16.921H63.51V36.466h2.836C69.9,42,74.151,48.479,77.163,53.443c-.057-3.959-.09-10.1-.09-16.977h2.382V56.713Z" transform="translate(69.521 39.918)"/>
        <rect id="長方形_714" data-name="長方形 714" width="2.436" height="20.247" transform="translate(156.569 76.383)"/>
        <path id="パス_1393" data-name="パス 1393" d="M84.773,56.713V38.7H78.75V36.466h14.57V38.7H87.265V56.713Z" transform="translate(86.204 39.918)"/>
        <path id="パス_1394" data-name="パス 1394" d="M88.139,56.713V36.466h13.284V38.7H90.636v6.483h9.836v2.208H90.636v7.082h11.443v2.239Z" transform="translate(96.481 39.918)"/>
        <path id="パス_1395" data-name="パス 1395" d="M97.517,36.465H103.2c3.473,0,4.937.2,6.338.89,2.549,1.259,4.162,4.734,4.162,9,0,3.3-.924,6.108-2.643,7.891a6.645,6.645,0,0,1-2.811,1.8,15.533,15.533,0,0,1-5.335.66h-5.39Zm5.475,18.066c3.416,0,5.052-.4,6.282-1.919a9.644,9.644,0,0,0,1.839-6.2c0-3.295-.976-6.965-4.5-7.6a14.391,14.391,0,0,0-3.159-.2h-3.5V54.531Z" transform="translate(106.747 39.917)"/>
        <path id="パス_1396" data-name="パス 1396" d="M127.834,56.713l-1.952-5.448h-8.8l-1.952,5.448h-2.633l7.828-20.247h2.606L130.5,56.713Zm-2.669-7.545c-1.234-3.381-2.465-6.736-3.643-10.119-.543,1.546-1.179,3.27-3.668,10.119Z" transform="translate(123.14 39.918)"/>
        <path id="パス_1397" data-name="パス 1397" d="M136.017,56.713l-5.737-8.573H125.9v8.573h-2.413V36.466h6.225a14.907,14.907,0,0,1,5.417.6,5.266,5.266,0,0,1,3.129,5.1c0,3.1-1.923,5.161-5.511,5.649l6.169,8.89ZM130.37,45.986c3.582,0,5.331-1.146,5.331-3.842a3.377,3.377,0,0,0-1.234-2.752c-.8-.66-1.919-.773-4.158-.773H125.9v7.367Z" transform="translate(135.173 39.918)"/>
        <path id="パス_1398" data-name="パス 1398" d="M146.069,56.713l-5.739-8.573h-4.384v8.573h-2.413V36.466h6.225a14.9,14.9,0,0,1,5.417.6,5.269,5.269,0,0,1,3.134,5.1c0,3.1-1.927,5.161-5.511,5.649l6.167,8.89Zm-5.651-10.727c3.586,0,5.335-1.146,5.335-3.842a3.389,3.389,0,0,0-1.234-2.752c-.8-.66-1.919-.773-4.158-.773h-4.416v7.367Z" transform="translate(146.172 39.918)"/>
        <path id="パス_1399" data-name="パス 1399" d="M146.031,55.316c-2.149-1.9-3.351-5.073-3.351-8.716,0-6.311,3.5-10.327,9-10.327a7.666,7.666,0,0,1,6.278,2.752,12.383,12.383,0,0,1,2.5,7.918c0,6.4-3.328,10.379-8.659,10.379a8.026,8.026,0,0,1-5.769-2.007m5.595-16.864c-3.873,0-6.368,3.039-6.368,8.058,0,5.308,2.555,8.578,6.481,8.578,3.7,0,6.112-3.071,6.112-8.144,0-5.279-2.44-8.492-6.225-8.492" transform="translate(156.184 39.708)"/>
        <path id="パス_1400" data-name="パス 1400" d="M166.384,36.466c1.514,5.679,3.209,11.673,4.529,17.065.4-1.894,1.433-6.253,4.244-17.065h2.407l-5.392,20.247h-2.38c-3.069-10.9-3.842-13.705-4.529-16.835-.716,3.1-1.405,5.764-4.531,16.835h-2.409l-5.561-20.247h2.522c1.489,5.708,2.983,11.387,4.418,17.094,1.347-5.626,2.723-10.844,4.382-17.094Z" transform="translate(167.221 39.918)"/>
        <path id="パス_1401" data-name="パス 1401" d="M168.565,50.842c.976,2.838,2.666,4.359,5.565,4.359,2.725,0,4.677-1.29,4.677-3.553,0-1.866-.949-2.583-4.277-3.676l-1.663-.543c-3.785-1.234-5.534-2.786-5.534-5.679,0-3.272,2.981-5.478,6.684-5.478,3.351,0,6.077,1.433,7.34,4.506l-2.208,1.085a4.982,4.982,0,0,0-5.019-3.525c-2.784,0-4.271,1.38-4.271,3.238,0,1.78,1.085,2.436,4.357,3.529l1.72.574c3.812,1.259,5.478,2.782,5.478,5.821,0,3.615-3.125,5.848-7.283,5.848a7.778,7.778,0,0,1-7.857-5.448Z" transform="translate(182.01 39.708)"/>
      </g>
    </g>
  </g>
</svg>
