<svg xmlns="http://www.w3.org/2000/svg" width="231.4" height="36.496" viewBox="0 0 231.4 36.496"><g transform="translate(-155.386 -209.7)"><g transform="translate(155.386 209.7)"><g transform="translate(0)"><g transform="translate(0 0)"><path d="M22.409,828.863v13.665a6.953,6.953,0,0,1-2.837.6,7.081,7.081,0,0,1-2.12-.327,9.8,9.8,0,0,0,2.6-4.583,8.854,8.854,0,0,0,.23-2.034c0-.269-.008-.522-.021-.771-.2-3.505-1.731-5.142-3.162-5.9a7.787,7.787,0,0,0-3.834-.657l-7.534,0v26.5c0,6.872,5.177,9.989,9.545,9.989s9.546-3.117,9.546-9.989v-26.5ZM15.16,840.816a2.333,2.333,0,1,1,2.337-2.334A2.332,2.332,0,0,1,15.16,840.816Zm-7.025-9.547h5.127c1.07,0,2.517.008,3.393.882a4.283,4.283,0,0,1,1.051,2.21,9.753,9.753,0,0,0-2.423-.3,9.9,9.9,0,0,0-2.536.335,9.68,9.68,0,0,0-4.611,2.787Zm14.274,23.938c0,5.4-3.776,7.739-7.136,7.739s-7.137-2.344-7.137-7.739v-11.75a6.574,6.574,0,0,1,2.262-5.125,9.419,9.419,0,0,0,2.826,4.755,9.45,9.45,0,0,0,6.349,2.456,9.456,9.456,0,0,0,2.837-.442Z" transform="translate(-5.728 -828.858)" fill="#c77555"/></g></g><rect width="2.278" height="0.003" transform="translate(134.891 14.951)" fill="#c77555"/><g transform="translate(68.856 12.137)"><rect width="2.408" height="13.409" fill="#c77555"/></g><path d="M54.37,843.726v8.069a3.155,3.155,0,1,1-6.291,0v-8.069H45.671v8.25a5.258,5.258,0,0,0,5.553,5.418,5.258,5.258,0,0,0,5.554-5.418v-8.25Z" transform="translate(-13.064 -831.589)" fill="#c77555"/><path d="M191.077,851.05h.754c1.821,0,2.67.867,3.564,2.948a34.046,34.046,0,0,0,1.536,3.138h2.922c-2.816-3.9-2.553-5.686-4.448-6.674a3.3,3.3,0,0,0,2.457-3.2c0-2.109-1.48-3.532-4.36-3.532H188.67v13.41h2.407Zm0-5.287h2.15c1.618,0,2.184.694,2.184,1.567s-.566,1.628-2.182,1.628h-2.152Z" transform="translate(-39.329 -831.589)" fill="#c77555"/><path d="M210.948,851.05h.753c1.821,0,2.67.867,3.564,2.948a34.151,34.151,0,0,0,1.537,3.138h2.921c-2.816-3.9-2.553-5.686-4.447-6.674a3.3,3.3,0,0,0,2.456-3.2c0-2.109-1.48-3.532-4.36-3.532H208.54v13.41h2.408Zm0-5.287H213.1c1.619,0,2.184.694,2.184,1.567s-.565,1.628-2.181,1.628h-2.152Z" transform="translate(-42.979 -831.589)" fill="#c77555"/><path d="M262.238,853.718l3.207-9.991H268l-4.561,13.41h-2.42l-2.964-9.991-2.929,9.991h-2.42l-4.6-13.408h2.593l3.246,9.991,2.846-9.991h2.546Z" transform="translate(-50.247 -831.589)" fill="#c77555"/><path d="M99.178,843.726v2.118h3.9v11.291h2.408V845.845h3.9v-2.118Z" transform="translate(-22.892 -831.589)" fill="#c77555"/><path d="M140.9,843.726h-4.133v13.41h4.154c5.413,0,7.781-3.076,7.781-6.705S146.333,843.726,140.9,843.726Zm-1.726,2.1h1.975c3.5.029,5.117,1.992,5.117,4.609s-1.62,4.645-5.117,4.61h-1.975Z" transform="translate(-29.796 -831.589)" fill="#c77555"/><path d="M173.469,843.726h-2.331l-5.292,13.409h2.594l1.735-4.645.016-.044H174.5l.016.044,1.766,4.645h2.65Zm-1.163,2.816,1.407,3.81h-2.765Z" transform="translate(-35.137 -831.589)" fill="#c77555"/><path d="M126.85,845.845v-2.119h-9.026v13.409h9.1V855h-6.689v-4.189H126.8v-2.1h-6.567v-2.86Z" transform="translate(-26.317 -831.589)" fill="#c77555"/><path d="M76.356,843.726v9.315l-6.847-9.315H67.27v13.409h2.357v-9.428l6.93,9.428h2.155V843.726Z" transform="translate(-17.032 -831.589)" fill="#c77555"/><g transform="translate(180.228 11.878)"><path d="M233.555,843.409a6.964,6.964,0,1,1-7.049,6.967A7.028,7.028,0,0,1,233.555,843.409Zm.019,11.713a4.751,4.751,0,1,0-4.588-4.745A4.555,4.555,0,0,0,233.574,855.122Z" transform="translate(-226.506 -843.409)" fill="#c77555"/></g><path d="M279.92,846.777c0-.705.9-1.282,2.291-1.282a6.673,6.673,0,0,1,3.448.908v-2.278a7.726,7.726,0,0,0-3.44-.716c-2.5,0-4.746,1.37-4.746,3.423,0,4.233,6.989,3.136,6.989,6.143,0,1.235-1.34,2.215-3.237,2.215a8.924,8.924,0,0,1-4.257-1.318v2.468a8.575,8.575,0,0,0,4.29,1c2.938,0,5.689-1.634,5.689-4.419C286.947,848.019,279.92,848.782,279.92,846.777Z" transform="translate(-55.547 -831.531)" fill="#c77555"/></g></g></svg>