<svg width="154" height="48" viewBox="0 0 154 48" fill="none" xmlns="http://www.w3.org/2000/svg">
<path d="M80.6047 0.0287656V10.1729C79.941 10.4676 79.2226 10.6188 78.4964 10.6168C77.9626 10.6164 77.432 10.5345 76.923 10.3738C77.8641 9.43702 78.5306 8.26042 78.8504 6.97165C78.9656 6.47656 79.0229 5.96978 79.0212 5.46147C79.0212 5.26174 79.0146 5.0731 79.0047 4.8878C78.8593 2.28573 77.7208 1.0707 76.6567 0.507012C75.7645 0.106455 74.7852 -0.0611614 73.8105 0.0198766H68.2181V19.6946C68.1766 20.651 68.3292 21.6059 68.6666 22.5017C69.004 23.3976 69.5192 24.2159 70.1813 24.9073C70.8434 25.5987 71.6386 26.1489 72.519 26.5248C73.3994 26.9007 74.3468 27.0945 75.3041 27.0945C76.2614 27.0945 77.2087 26.9007 78.0891 26.5248C78.9695 26.1489 79.7647 25.5987 80.4268 24.9073C81.0889 24.2159 81.6042 23.3976 81.9416 22.5017C82.279 21.6059 82.4315 20.651 82.39 19.6946V0.0287656H80.6047ZM75.2231 8.90574C74.8806 8.9053 74.546 8.80337 74.2615 8.61282C73.977 8.42228 73.7553 8.15167 73.6245 7.83519C73.4937 7.51872 73.4597 7.17057 73.5267 6.83475C73.5937 6.49892 73.7587 6.1905 74.0009 5.94843C74.2431 5.70637 74.5516 5.54152 74.8875 5.47474C75.2233 5.40796 75.5715 5.44224 75.8879 5.57323C76.2043 5.70423 76.4747 5.92607 76.6651 6.21072C76.8554 6.49537 76.9572 6.83006 76.9574 7.1725C76.9571 7.39991 76.912 7.62505 76.8247 7.83502C76.7374 8.045 76.6095 8.2357 76.4484 8.39625C76.2874 8.5568 76.0963 8.68403 75.886 8.77069C75.6758 8.85735 75.4505 8.90174 75.2231 8.9013V8.90574ZM70.0079 1.81858H73.8128C74.7053 1.70752 75.6065 1.94216 76.3316 2.47437C76.7445 2.93389 77.0143 3.50382 77.1083 4.11438C76.5203 3.96551 75.9161 3.89096 75.3096 3.89246C74.6727 3.89325 74.0386 3.9768 73.4233 4.14102C72.7433 4.32395 72.0936 4.60505 71.4948 4.97545C70.943 5.31715 70.4402 5.73225 70.0001 6.20935L70.0079 1.81858ZM80.6036 19.5892C80.6036 23.5949 77.8007 25.3348 75.3063 25.3348C72.8119 25.3348 70.0079 23.5949 70.0079 19.5892V10.4781C69.9839 9.81393 70.1246 9.15418 70.4175 8.55766C70.7105 7.96114 71.1465 7.44639 71.6867 7.05933C72.017 8.41942 72.748 9.64905 73.785 10.589C75.0751 11.7606 76.7549 12.4104 78.4975 12.4121C79.2131 12.4093 79.9241 12.297 80.6058 12.0793L80.6036 19.5892Z" fill="black"/>
<path d="M23.2022 38.861H21.7563V46.9113H23.2022V38.861Z" fill="black"/>
<path d="M5.21517 38.8607V43.7053C5.23898 43.9674 5.20792 44.2316 5.12394 44.4811C5.03997 44.7305 4.90493 44.9597 4.72744 45.154C4.54996 45.3483 4.33393 45.5035 4.09313 45.6097C3.85232 45.7159 3.59203 45.7708 3.32884 45.7708C3.06566 45.7708 2.80534 45.7159 2.56453 45.6097C2.32372 45.5035 2.10769 45.3483 1.93021 45.154C1.75273 44.9597 1.61769 44.7305 1.53371 44.4811C1.44974 44.2316 1.41868 43.9674 1.44249 43.7053V38.8607H0V43.8141C0.0224321 44.6835 0.383561 45.5098 1.00643 46.1168C1.62931 46.7238 2.46463 47.0635 3.33436 47.0635C4.2041 47.0635 5.03945 46.7238 5.66233 46.1168C6.2852 45.5098 6.64633 44.6835 6.66876 43.8141V38.8607H5.21517Z" fill="black"/>
<path d="M71.5236 43.2585H71.9763C73.0693 43.2585 73.5797 43.7789 74.1168 45.0283C74.3915 45.6725 74.6993 46.3022 75.0389 46.9147H76.792C75.101 44.5745 75.2596 43.5015 74.1223 42.9078C74.5465 42.7961 74.9215 42.5467 75.1885 42.1986C75.4554 41.8505 75.5992 41.4235 75.597 40.9848C75.597 39.7188 74.7093 38.8644 72.9794 38.8644H70.0789V46.9147H71.5213L71.5236 43.2585ZM71.5236 40.0839H72.8141C73.7861 40.0839 74.1257 40.5011 74.1257 41.0248C74.1257 41.5485 73.7861 42.0024 72.8152 42.0024H71.5225L71.5236 40.0839Z" fill="black"/>
<path d="M81.2624 43.2584H81.714C82.807 43.2584 83.3163 43.7788 83.8533 45.0283C84.1285 45.6724 84.4367 46.3021 84.7766 46.9146H86.5297C84.8387 44.5744 84.9973 43.5014 83.8589 42.9078C84.2834 42.7957 84.6586 42.5456 84.9254 42.1969C85.1922 41.8481 85.3354 41.4205 85.3325 40.9815C85.3325 39.7154 84.4448 38.861 82.7149 38.861H79.8132V46.9113H81.2557L81.2624 43.2584ZM81.2624 40.0838H82.5584C83.5304 40.0838 83.8689 40.501 83.8689 41.0247C83.8689 41.5485 83.5293 42.0023 82.5595 42.0023H81.2679L81.2624 40.0838Z" fill="black"/>
<path d="M107.692 44.8596L109.618 38.861H111.154L108.415 46.9113H106.962L105.186 40.9127L103.428 46.9113H101.974L99.2144 38.861H100.768L102.716 44.8596L104.425 38.861H105.954L107.692 44.8596Z" fill="black"/>
<path d="M26.2168 38.8619V40.138H28.5559V46.9167H29.9984V40.138H32.3374V38.8619H26.2168Z" fill="black"/>
<path d="M47.122 38.861H44.6409V46.9113H47.1342C50.3842 46.9113 51.8057 45.0649 51.8057 42.8856C51.8057 40.7063 50.3842 38.861 47.122 38.861ZM46.0856 40.1193H47.2718C49.37 40.137 50.3432 41.3155 50.3432 42.8867C50.3432 44.4579 49.37 45.6752 47.2718 45.6541H46.0856V40.1193Z" fill="black"/>
<path d="M63.4687 38.861H62.0694L58.8926 46.9068H60.4461L61.488 44.1183L61.498 44.0917H64.0845L64.0944 44.1183L65.1541 46.9068H66.7453L63.4687 38.861ZM62.7707 40.552L63.6151 42.8389H61.9507L62.7707 40.552Z" fill="black"/>
<path d="M40.7746 40.1395V38.8678H35.3552V46.9081H40.8167V45.6232H36.8011V43.1132H40.7435V41.8516H36.8011V40.1395H40.7746Z" fill="black"/>
<path d="M16.0345 38.8616V44.4541L11.9289 38.8616H10.5852V46.9075H11.9955V41.2484L16.1566 46.9075H17.4504V38.8561L16.0345 38.8616Z" fill="black"/>
<path d="M92.8549 38.7051C93.6795 38.7152 94.4827 38.9689 95.1635 39.4343C95.8442 39.8997 96.3721 40.556 96.6808 41.3207C96.9896 42.0854 97.0652 42.9243 96.8984 43.7319C96.7315 44.5395 96.3295 45.2797 95.7431 45.8594C95.1566 46.4391 94.4118 46.8325 93.6023 46.9899C92.7928 47.1474 91.9548 47.062 91.1938 46.7445C90.4327 46.4269 89.7826 45.8914 89.3251 45.2053C88.8676 44.5191 88.6233 43.7131 88.6228 42.8884C88.6316 41.7732 89.0819 40.7069 89.875 39.9229C90.6682 39.1388 91.7397 38.701 92.8549 38.7051ZM92.8671 45.7368C93.4352 45.7562 93.9962 45.6055 94.4781 45.304C94.96 45.0024 95.3408 44.5637 95.5716 44.0443C95.8025 43.5248 95.8729 42.9482 95.7739 42.3884C95.6748 41.8287 95.4108 41.3112 95.0156 40.9026C94.6205 40.4939 94.1122 40.2126 93.5561 40.0948C93 39.9769 92.4214 40.0279 91.8945 40.2412C91.3675 40.4544 90.9163 40.8203 90.5987 41.2917C90.2811 41.7632 90.1116 42.3188 90.1119 42.8873C90.0964 43.2576 90.1563 43.6271 90.288 43.9736C90.4197 44.32 90.6204 44.636 90.878 44.9025C91.1356 45.169 91.4446 45.3804 91.7863 45.5238C92.1281 45.6672 92.4965 45.7397 92.8671 45.7368Z" fill="black"/>
<path d="M115.125 40.7288C115.125 40.306 115.665 39.9587 116.501 39.9587C117.228 39.9493 117.943 40.1376 118.571 40.5036V39.1354C117.924 38.8355 117.218 38.6886 116.506 38.706C115.002 38.706 113.656 39.5282 113.656 40.761C113.656 43.302 117.852 42.6473 117.852 44.4494C117.852 45.1906 117.047 45.7809 115.908 45.7809C115.004 45.7369 114.126 45.4647 113.355 44.9897V46.4711C114.148 46.8915 115.036 47.0976 115.932 47.0692C117.695 47.0692 119.347 46.0883 119.347 44.4161C119.345 41.4734 115.125 41.9327 115.125 40.7288Z" fill="black"/>
<path d="M134.317 38.8619V40.1347H136.661V46.9133H138.103V40.1347H140.442V38.863L134.317 38.8619Z" fill="black"/>
<path d="M145.937 38.8619H143.454V46.9122H145.948C149.198 46.9122 150.619 45.0658 150.619 42.8865C150.619 40.7072 149.199 38.8619 145.937 38.8619ZM144.9 40.1191H146.085C148.184 40.1369 149.157 41.3153 149.157 42.8865C149.157 44.4577 148.184 45.675 146.085 45.6539H144.9V40.1191Z" fill="black"/>
<path d="M127.417 38.8609V46.9112H132.879V45.6262H128.863V38.8575L127.417 38.8609Z" fill="black"/>
<path d="M152.275 46.2067C152.275 46.0362 152.325 45.8694 152.42 45.7275C152.514 45.5855 152.649 45.4748 152.806 45.4093C152.964 45.3438 153.137 45.3264 153.304 45.3594C153.472 45.3924 153.626 45.4742 153.746 45.5946C153.867 45.7149 153.95 45.8684 153.983 46.0356C154.017 46.2028 154 46.3762 153.935 46.5339C153.87 46.6916 153.76 46.8265 153.618 46.9216C153.477 47.0167 153.31 47.0677 153.14 47.0681C153.026 47.0685 152.914 47.0466 152.809 47.0035C152.704 46.9604 152.609 46.897 152.529 46.817C152.448 46.737 152.384 46.6418 152.341 46.5371C152.298 46.4324 152.275 46.3201 152.275 46.2067Z" fill="black"/>
</svg>
