<svg xmlns="http://www.w3.org/2000/svg" xmlns:xlink="http://www.w3.org/1999/xlink" width="632.995" height="389" viewBox="0 0 632.995 389">
  <defs>
    <clipPath id="clip-path">
      <rect id="長方形_727" data-name="長方形 727" width="355" height="78.898" transform="translate(0 0)"/>
    </clipPath>
  </defs>
  <g id="グループ_1814" data-name="グループ 1814" transform="translate(-119 -3884.76)">
    <g id="グループ_1522" data-name="グループ 1522" transform="translate(119 3884.76)">
      <rect id="長方形_266" data-name="長方形 266" width="632.995" height="389" fill="none"/>
    </g>
    <g id="グループ_1806" data-name="グループ 1806" transform="translate(-14818.002 -11153.577)">
      <g id="グループ_1812" data-name="グループ 1812" transform="translate(15076 15184.055)">
        <g id="グループ_1802" data-name="グループ 1802" transform="translate(0 0)" clip-path="url(#clip-path)">
          <path id="パス_1495" data-name="パス 1495" d="M2.912,23.069a27.424,27.424,0,0,1,7.647-9.711,31.928,31.928,0,0,1,10.984-5.7A43.864,43.864,0,0,1,34.107,5.833h1.576a46.472,46.472,0,0,1,7.526.79A47.5,47.5,0,0,1,49.28,8.2a33.037,33.037,0,0,1,4.732,2q2.065,1.091,3.521,1.941l-5.1,5.706L44.666,9.476a24.273,24.273,0,0,0-4.429-1.155A34.06,34.06,0,0,0,34.591,7.9,30.125,30.125,0,0,0,23.426,9.959,26.428,26.428,0,0,0,8.375,24.83,30.34,30.34,0,0,0,6.19,36.541,29.6,29.6,0,0,0,8.315,48.133a24.663,24.663,0,0,0,14.442,13.9,29.627,29.627,0,0,0,10.378,1.82,33.9,33.9,0,0,0,6.555-.668,50.755,50.755,0,0,0,6.614-1.76,45.34,45.34,0,0,0,6.068-2.547,32.27,32.27,0,0,0,4.916-3.034l.365,3.034a47.828,47.828,0,0,1-11.774,5.584,42.647,42.647,0,0,1-13.11,2.063,39.991,39.991,0,0,1-12.5-1.945A30.452,30.452,0,0,1,9.829,58.815a28.112,28.112,0,0,1-7.16-9.4A29.814,29.814,0,0,1,0,36.419a29.464,29.464,0,0,1,2.912-13.35" transform="translate(0 12.375)"/>
          <path id="パス_1496" data-name="パス 1496" d="M24.1,36.666a31.389,31.389,0,0,1,2.834-13.837,27.012,27.012,0,0,1,7.619-9.589A31.987,31.987,0,0,1,45.767,7.656,49.4,49.4,0,0,1,59.286,5.833a45.056,45.056,0,0,1,13.1,1.823A28.76,28.76,0,0,1,82.84,13.24a26.149,26.149,0,0,1,6.967,9.467,32.926,32.926,0,0,1,2.541,13.472,30.54,30.54,0,0,1-2.775,13.475,27.087,27.087,0,0,1-7.5,9.467A31.615,31.615,0,0,1,71.153,64.7a46.5,46.5,0,0,1-13.166,1.823A45.017,45.017,0,0,1,45.118,64.7a32.222,32.222,0,0,1-10.8-5.459,26.27,26.27,0,0,1-7.441-9.286A29.839,29.839,0,0,1,24.1,36.666M32.364,48.2a24.418,24.418,0,0,0,5.962,8.8,26.872,26.872,0,0,0,9.033,5.525,31.8,31.8,0,0,0,11.221,1.941A32.769,32.769,0,0,0,70.03,62.579,23.6,23.6,0,0,0,84.375,48.137a34.391,34.391,0,0,0,1.951-11.958q0-13.592-7.379-20.876T58.693,8.018A32.979,32.979,0,0,0,47.181,9.963a25.178,25.178,0,0,0-9.03,5.643,25.936,25.936,0,0,0-5.906,8.983A31.771,31.771,0,0,0,30.12,36.544,28.675,28.675,0,0,0,32.364,48.2" transform="translate(51.122 12.375)"/>
          <path id="パス_1497" data-name="パス 1497" d="M60.767,7.364V18.285H62.83A25.636,25.636,0,0,1,74,8.665a36.816,36.816,0,0,1,14.564-2.79q11.771,0,17.782,6.08t6.009,18.119V61.844l4.854,4.591H101.672l4.854-4.467V32.06q0-10.67-4.916-16.877T85.891,8.978a28.261,28.261,0,0,0-9.526,1.614,24.245,24.245,0,0,0-8.013,4.654,22.635,22.635,0,0,0-5.522,7.382,22.269,22.269,0,0,0-2.063,9.679V61.844l4.854,4.591H50.086l4.854-4.467V12.327L50.086,7.364Z" transform="translate(106.25 12.464)"/>
          <path id="パス_1498" data-name="パス 1498" d="M75.05,23.3V20.392H89.255V1.82L95.564,0l-.122,20.392h20.879V23.3H95.442v39.2q0,3.4.122,6.13a13.493,13.493,0,0,0,.911,4.613,4.872,4.872,0,0,0,2.491,2.669,10.043,10.043,0,0,0,4.248.79h1.451a10.386,10.386,0,0,0,3.824-1.4,31.094,31.094,0,0,0,2.975-1.882l1.945,3.886a33.263,33.263,0,0,1-5.462,1.152,42.332,42.332,0,0,1-5.584.425,22.174,22.174,0,0,1-6.736-.849,7.99,7.99,0,0,1-4.008-2.672A10.421,10.421,0,0,1,89.739,70.7a42.352,42.352,0,0,1-.484-6.979V23.3Z" transform="translate(159.207 0.001)"/>
          <path id="パス_1499" data-name="パス 1499" d="M110.338,23.383V21.751h35.777a20.92,20.92,0,0,0-7.285-11.8,21.01,21.01,0,0,0-13.057-4.395q-14.14-.122-20.629,12.055-6.059,11.176-2.307,25.236,3.75,14.566,15.435,20.464A28.546,28.546,0,0,0,132.7,66.2a23.634,23.634,0,0,0,13.562-5.213q6.2-4.832,9.377-15.632h2.02Q155.2,57.158,146.692,64T125.63,70.844q-14.861,0-23.732-9.1T93.027,37.32q0-15.067,9.015-24.3T125.63,3.8a34.506,34.506,0,0,1,19.043,5.272,26.684,26.684,0,0,1,11.252,14.19l.147.125Z" transform="translate(197.342 8.056)"/>
        </g>
      </g>
    </g>
  </g>
</svg>
