<svg xmlns="http://www.w3.org/2000/svg" xmlns:xlink="http://www.w3.org/1999/xlink" width="633" height="389" viewBox="0 0 633 389">
  <defs>
    <clipPath id="clip-path">
      <rect id="長方形_708" data-name="長方形 708" width="291.332" height="238.462"/>
    </clipPath>
  </defs>
  <g id="グループ_1745" data-name="グループ 1745" transform="translate(-118.995 -3724.434)">
    <g id="グループ_1645" data-name="グループ 1645" transform="translate(118.995 3724.434)">
      <rect id="長方形_158" data-name="長方形 158" width="633" height="389" transform="translate(0 0)" fill="none"/>
    </g>
    <g id="グループ_1678" data-name="グループ 1678" transform="translate(285.636 3803.434)">
      <g id="グループ_1677" data-name="グループ 1677" transform="translate(0 5)" clip-path="url(#clip-path)">
        <path id="パス_1375" data-name="パス 1375" d="M104.534,169.167c-.8.961-1.868,2.265-3.143,3.832a40.7,40.7,0,0,1-6.451,6.2c-15.917,11.5-58.3,18.282-76.65,9.75-12.061-5.609-16.033-20.534.006-37.3C28.609,140.88,41.444,133.54,54.341,126.2,83.6,109.55,119.053,97.285,146.392,95.823c3.608-.193,6.46-.2,8.717-.107-3.14,8.634-26.688,22.373-39.744,29.3-10.62,5.633-23.149,11.558-34.164,16.382-1.877.822,5.819,8.426,7.582,7.581,11.258-5.395,23.591-11.61,34.671-17.716,14.076-7.757,46.486-30.821,38.3-40.327-2.7-3.134-7.656-3.288-11.535-3.412a99.741,99.741,0,0,0-16.842,1.113,253.864,253.864,0,0,0-27.193,5.39,232.271,232.271,0,0,0-47.41,18.043c-14.336,7.215-28.369,15.737-40.3,26.548a75.741,75.741,0,0,0-13.021,14.8c-2.813,4.369-5.079,9.45-5.4,14.7-.635,10.336,5.356,20.567,13.907,26.128,8.535,5.551,18.733,7.236,28.747,7.426a122.227,122.227,0,0,0,41.534-7.29c-12.179,15.252-25.564,32.084-29.1,36.374-1.351,1.638,6.653,8.768,7.582,7.582C72.209,226.216,86.053,209.9,93.9,199.682c3.852-5.017,13.5-17.242,18.215-22.933,1.052-1.26-6.668-8.678-7.582-7.582M283.6,53.693a10.235,10.235,0,0,0-.867,1.016c-15.9,18.629-39.276,47.621-59.536,75.276-7.657,2.015-13.229,3.459-14.283,3.677-.775.159-.712,1.172-.342,1.778a44.048,44.048,0,0,0,4.949,5.54c-19.606,19.246-31.915,23.313-38.675,23.428.279-5.3,3.252-15.472,16.249-33.364a477.927,477.927,0,0,1,36.672-43.558c1.488-1.562-6.525-8.632-7.579-7.578-13.021,13.021-29.068,33.852-39.595,48.994a124.977,124.977,0,0,0-9.426,15.835c-6.754,7.4-15.746,11.415-22.255,10.906-3.305-6.072-10.11-7.682-12.466-5.461-1.817,1.713-.526,6.948,6.316,9.972,1.786,5.286.016,11.3-3.715,13.881a12.612,12.612,0,0,1-9.988,2.256,7.818,7.818,0,0,1-.632-1.479c-1.124-3.673,2.988-8.406,7.138-11.012,1.594-1-5.544-8.142-7.589-7.588a14.116,14.116,0,0,0-8.984,8.282c-1.452,4.288-.794,7.107,1.2,10.461,1.721,2.9,5.556,6.5,9.684,6.941,13.125,1.413,21.609-10.247,20.788-20.28,4.592-.153,10.162-1.747,16.2-5.391a21.985,21.985,0,0,0-.633,6.53c.172,2.242,5.829,7.108,7.588,7.588,3.858,1.052,11.624-1.014,20.011-6.046a92.562,92.562,0,0,0,10.515-7.5c-14.368,21.515-23.98,39.273-22.424,46.187.436,1.934,5.785,7.117,7.588,7.588,2.369.619,15.465-1.4,26.814-15.051,15.6-18.775,12.79-40.535,9.074-50.616,1.844-2.677,3.611-5.214,5.245-7.516,8.373-2.35,25.32-7.072,59.42-16.491,1.987-.549-4.841-7.412-6.875-6.874-2.124.564-24.3,6.5-43.908,11.706C263.4,94.016,290,62.723,291.187,61.262c1.293-1.594-6.381-8.591-7.589-7.569M212.19,190.7c-8.694,10.437-16.277,13.4-21.484,13.883.207-3.876,2.191-11.281,10.8-24.143,4.506-6.732,11.452-17.23,18.225-27.239,2.433,10.506,2.066,25.961-7.544,37.5M161.168,27.61h4.668L169.52,4.271h7.7L177.872.04H157.777l-.657,4.231h7.732Zm26.688,39.675,10.454-17.14,5.138,17.14h1.1l14.325-27.607h-5.105L205.385,56.2a4.267,4.267,0,0,0-.437,1.313,4.98,4.98,0,0,0-.037-1.313l-4.369-16.52h-.97l-9.8,16.52a2.955,2.955,0,0,0-.437,1.2,6.68,6.68,0,0,0,0-1.2l-3.173-16.52h-5.179l5.821,27.607Zm45.1-55.028C232.956,3.687,227.7,0,220.7,0h-7.768L208.558,27.61H215.6c10.138,0,17.359-5.324,17.359-15.353M216.947,4.234h3.61c4.522,0,7.4,2.918,7.4,8.315,0,7.257-5.251,10.831-11.013,10.831h-3.063ZM199.031,23.344H187.252l1.313-8.278h8.606l.693-4.23h-8.607l1.022-6.564h10.685L201.657.04H186.3l-4.376,27.534h16.447Zm26.02,23.41c0,7.841,9.7,7.257,9.7,12.764,0,2.37-1.787,4.158-4.887,4.158a8.156,8.156,0,0,1-6.2-3.027L220.639,64a11.19,11.19,0,0,0,8.971,3.9c5.471,0,10.212-3.027,10.212-8.862,0-8.57-9.81-7.95-9.81-12.508,0-2.189,2.3-3.319,4.3-3.319a5.882,5.882,0,0,1,4.523,2.407l2.771-3.465c-.474-.692-2.552-3.1-7.184-3.1-4.485,0-9.372,2.26-9.372,7.694M63.641,61.888H75.494l1.532,5.4H82.24L73.658,39.679H72.591L55.144,67.285h5.324ZM71.7,48.03l2.661,9.627H66.122Zm86.565,19.875A16.45,16.45,0,0,0,174.677,51.64c0-7.257-4.814-12.581-12.363-12.581-8.425,0-16.594,6.637-16.594,16.046,0,7.22,4.814,12.8,12.545,12.8m3.465-24.616c4.668,0,7.95,3.683,7.95,8.68,0,6.491-5.47,11.743-10.977,11.743-4.923,0-7.95-4.231-7.95-8.935,0-6.381,5.507-11.487,10.977-11.487m-71.24,24h4.668l1.605-10.211h.8l7.184,10.211H110.8l-8.315-10.758a9.809,9.809,0,0,0,8.06-9.665c0-6.017-5.507-7.183-10.065-7.183H94.867Zm8.352-23.339h1.932c3.647,0,4.777,1.277,4.777,3.574,0,3.063-2.042,5.506-6.236,5.506h-1.9Zm-16.7-15.719c7.411,0,11.062-3.606,12.3-11.428L97.11,0H92.442L90.116,14.64c-1.058,6.661-3.7,9.467-7.411,9.467-3.872,0-5.752-2.423-4.812-8.388C78.282,13.249,80.371,0,80.371,0H75.7L72.974,17.2c-1.11,7,2.606,11.031,9.171,11.031M150.155,0h-4.668L141.111,27.61h4.668ZM111.57,10.143,127.144,27.61h1.072L132.612,0h-4.668l-2.809,18.125L109.388,0H108.6l-4.4,27.61h4.668Zm11.095,29.537-4.376,27.606h4.668l1.6-10.211h.8l7.184,10.211H138.6l-8.315-10.758a9.809,9.809,0,0,0,8.06-9.665c0-6.017-5.507-7.183-10.065-7.183ZM133.35,47.52c0,3.063-2.041,5.506-6.236,5.506h-1.9l1.422-9.08h1.933c3.647,0,4.777,1.277,4.777,3.574m140.718,86.668A10.608,10.608,0,1,0,284.677,144.8a10.617,10.617,0,0,0-10.609-10.608m0,20.06a9.446,9.446,0,1,1,9.446-9.452,9.448,9.448,0,0,1-9.446,9.452m3.012-11.118a2.935,2.935,0,0,1-1.2.255,2.988,2.988,0,0,1-.9-.138,4.131,4.131,0,0,0,1.1-1.935,3.735,3.735,0,0,0,.1-.859c0-.113,0-.22-.009-.325a2.735,2.735,0,0,0-1.334-2.491,3.292,3.292,0,0,0-1.618-.277H270.04v11.185a4.033,4.033,0,1,0,8.057,0V137.364H277.08Zm-3.06-.723a.984.984,0,1,1,.987-.985.984.984,0,0,1-.987.985m-2.964-4.029h2.163a2,2,0,0,1,1.432.372,1.8,1.8,0,0,1,.443.932,4.112,4.112,0,0,0-1.022-.128,4.173,4.173,0,0,0-1.07.141,4.107,4.107,0,0,0-1.1.474,4.053,4.053,0,0,0-.849.7Zm6.024,10.1a3.022,3.022,0,1,1-6.024,0V143.3a2.29,2.29,0,0,1,.954-1.944,3.975,3.975,0,0,0,5.07,2.857Z" transform="translate(0)"/>
      </g>
    </g>
  </g>
</svg>
