<svg width="22" height="19" viewBox="0 0 22 19" fill="none" xmlns="http://www.w3.org/2000/svg">
<path d="M2.48771 9.55041C2.01512 9.07818 1.63999 8.51403 1.38447 7.89126C1.12895 7.2685 0.998233 6.59975 1.00002 5.92452C0.998492 5.255 1.12948 4.59207 1.38513 3.97554C1.64079 3.35902 2.01582 2.80164 2.48771 2.33686C3.4357 1.39225 4.70776 0.863592 6.03222 0.863774C7.34771 0.861984 8.61052 1.39151 9.54521 2.33686C10.3664 3.16215 10.8809 4.25351 11.0004 5.42378C11.1064 4.25712 11.6087 3.16507 12.4202 2.33686C13.3679 1.3918 14.6401 0.863057 15.9647 0.863774C17.288 0.869709 18.5579 1.39747 19.5092 2.33686C19.9817 2.80172 20.3574 3.35934 20.6135 3.97622C20.8697 4.59309 21.0011 5.25649 20.9999 5.92654C21.0047 6.6025 20.8751 7.27242 20.6188 7.89569C20.3626 8.51896 19.9851 9.08259 19.5092 9.55242L10.9994 18.1365L2.48771 9.55041Z" stroke="black"/>
</svg>
