<svg xmlns="http://www.w3.org/2000/svg" xmlns:xlink="http://www.w3.org/1999/xlink" width="632.995" height="389" viewBox="0 0 632.995 389">
  <defs>
    <clipPath id="clip-path">
      <rect id="長方形_731" data-name="長方形 731" width="409.999" height="90.209" fill="#001689"/>
    </clipPath>
  </defs>
  <g id="グループ_1828" data-name="グループ 1828" transform="translate(-1554 -3885)">
    <g id="グループ_1522" data-name="グループ 1522" transform="translate(1554 3885)">
      <rect id="長方形_266" data-name="長方形 266" width="632.995" height="389" fill="none"/>
    </g>
    <g id="グループ_1824" data-name="グループ 1824" transform="translate(-111 -76)">
      <g id="グループ_1823" data-name="グループ 1823" transform="translate(1776 4100)">
        <path id="パス_1503" data-name="パス 1503" d="M68.922,19.083,61.732,42.024,54.91,19.083H34.333L27.506,41.971,19.952,19.083H0l14.274,38.76H37.145l6.773-21.588,6.824,21.588H73.088l14.433-38.76Z" transform="translate(0 32.367)" fill="#001689"/>
        <path id="パス_1504" data-name="パス 1504" d="M80.79,29.868l5.1,11.073H75.8ZM69.07,19.083,50.42,57.843H68.183l2.826-6.223H90.833l2.877,6.223H113.2L93.349,19.083Z" transform="translate(85.523 32.368)" fill="#001689"/>
        <path id="パス_1505" data-name="パス 1505" d="M33,19.083v38.76H78.276V47.473H50.3V42.828H77.6V33.577H50.3V29.344H78.014V19.083Z" transform="translate(55.982 32.367)" fill="#001689"/>
        <path id="パス_1506" data-name="パス 1506" d="M81.217.271V19L61.057.271H41.31v38.76H58.817V18.683L80.958,39.031H98.723V.271Z" transform="translate(70.071 0.459)" fill="#001689"/>
        <path id="パス_1507" data-name="パス 1507" d="M94.8.271v38.76h45.269V28.662H112.095V24.016h27.3V14.766h-27.3V10.533h27.714V.271Z" transform="translate(160.798 0.459)" fill="#001689"/>
        <g id="グループ_1822" data-name="グループ 1822" transform="translate(0.001 0)">
          <g id="グループ_1821" data-name="グループ 1821" clip-path="url(#clip-path)">
            <path id="パス_1508" data-name="パス 1508" d="M100.638,40.219h1.925c24.694,0,28.081-10.887,28.081-16.2V22.494H112.671c-.156.836-1.095,6.158-11.251,6.158-9.482,0-11.567-4.791-11.567-8.49v-.626c0-3.8,1.874-8.075,11.513-8.075,10,0,11.044,4.8,11.305,5.794h17.973V16.1c0-5.365-3.386-16.1-28.081-16.1h-1.925C75.056,0,71.724,11.462,71.724,19.224v1.564c0,7.711,3.594,19.431,28.914,19.431" transform="translate(121.658 -0.001)" fill="#001689"/>
            <rect id="長方形_730" data-name="長方形 730" width="17.504" height="38.76" transform="translate(172.43 0.728)" fill="#001689"/>
            <path id="パス_1509" data-name="パス 1509" d="M130.485,42.826h27.3V33.575h-27.3v-4.23H158.2V19.083H113.189V57.841h45.272V47.474H130.485Z" transform="translate(191.991 32.368)" fill="#001689"/>
            <path id="パス_1510" data-name="パス 1510" d="M130.21,32.744H107.966V19.082H90.409v38.76h17.558V43.192H130.21V57.843h17.609V19.082H130.21Z" transform="translate(153.351 32.366)" fill="#001689"/>
            <path id="パス_1511" data-name="パス 1511" d="M186.6,48.214c0-5-3.128-8.388-8.6-9.48,3.227-.833,8.439-3.022,8.439-8.857v-.949c0-7.086-5.991-9.846-15.735-9.846H131.275v38.76H148.83V44.6h12.451c5.678,0,7.66,2.448,7.66,6.616v6.627h18.388V57.1c-.415-.677-.728-1.186-.728-3.478ZM168.366,32c0,1.615-1.043,2.812-3.961,2.812H148.83V29.136h15.576c2.917,0,3.961,1.2,3.961,2.815Z" transform="translate(222.668 32.366)" fill="#001689"/>
            <path id="パス_1512" data-name="パス 1512" d="M70.294,30.792H87.016V57.843h17.609V30.792H121.35V19.083H70.294Z" transform="translate(119.233 32.367)" fill="#001689"/>
          </g>
        </g>
      </g>
    </g>
  </g>
</svg>
