<svg xmlns="http://www.w3.org/2000/svg" xmlns:xlink="http://www.w3.org/1999/xlink" width="632.995" height="389" viewBox="0 0 632.995 389">
  <defs>
    <clipPath id="clip-path">
      <rect id="長方形_729" data-name="長方形 729" width="300" height="83.612" fill="none"/>
    </clipPath>
  </defs>
  <g id="グループ_1818" data-name="グループ 1818" transform="translate(-838 -3885)">
    <g id="グループ_1522" data-name="グループ 1522" transform="translate(838 3885)">
      <rect id="長方形_266" data-name="長方形 266" width="632.995" height="389" fill="none"/>
    </g>
    <g id="グループ_1815" data-name="グループ 1815" transform="translate(1004 4038)">
      <g id="グループ_1814" data-name="グループ 1814" transform="translate(0 0)" clip-path="url(#clip-path)">
        <path id="パス_1500" data-name="パス 1500" d="M43.189,83.612A44.4,44.4,0,0,1,25.96,80.331a42.261,42.261,0,0,1-13.668-8.895,41.144,41.144,0,0,1-9.017-13.21A40.366,40.366,0,0,1,0,42.04v-.234A41.028,41.028,0,0,1,12.4,12.227,43.4,43.4,0,0,1,26.193,3.275,44.61,44.61,0,0,1,43.422,0a44.615,44.615,0,0,1,17.22,3.275,42.486,42.486,0,0,1,13.675,8.894,41.27,41.27,0,0,1,9.012,13.218A40.388,40.388,0,0,1,86.6,41.573v.233A40.978,40.978,0,0,1,74.194,71.385a43.287,43.287,0,0,1-13.778,8.946,44.437,44.437,0,0,1-17.227,3.281m.168-20.1a20.11,20.11,0,0,0,8.409-1.718,19.165,19.165,0,0,0,6.447-4.663,21.6,21.6,0,0,0,4.153-6.821,22.957,22.957,0,0,0,1.5-8.268v-.234a23.017,23.017,0,0,0-1.5-8.274A21.521,21.521,0,0,0,58.1,26.64a21.261,21.261,0,0,0-6.563-4.762A19.694,19.694,0,0,0,43.131,20.1a19.629,19.629,0,0,0-8.353,1.73A19.956,19.956,0,0,0,24.185,33.305a23.662,23.662,0,0,0-1.441,8.268v.233a22.98,22.98,0,0,0,1.492,8.269,21.832,21.832,0,0,0,4.211,6.9,20.256,20.256,0,0,0,6.5,4.754,19.5,19.5,0,0,0,8.4,1.783" transform="translate(0 0)"/>
        <path id="パス_1501" data-name="パス 1501" d="M126.3,83.364A62.416,62.416,0,0,1,105.787,80,49.716,49.716,0,0,1,88.624,69.968l12.4-14.859q12.063,9.65,26.071,9.651a13.317,13.317,0,0,0,6.84-1.434,4.51,4.51,0,0,0,2.35-4.07v-.233a4.341,4.341,0,0,0-.58-2.235,5.642,5.642,0,0,0-2.12-1.886,21.9,21.9,0,0,0-4.134-1.776q-2.585-.862-6.717-1.782-6.434-1.492-11.943-3.269a36.309,36.309,0,0,1-9.593-4.586,20.617,20.617,0,0,1-6.427-7,20.743,20.743,0,0,1-2.366-10.374V25.9a24.866,24.866,0,0,1,2.125-10.33,23.045,23.045,0,0,1,6.2-8.131A29.228,29.228,0,0,1,110.56,2.1,41.439,41.439,0,0,1,123.537.218a57.623,57.623,0,0,1,18.429,2.713,46.288,46.288,0,0,1,14.658,8.035L145.475,26.739a45.118,45.118,0,0,0-11.318-5.9,34.027,34.027,0,0,0-11.194-2.015q-4.021,0-6.026,1.491a4.438,4.438,0,0,0-2.01,3.67v.226a4.527,4.527,0,0,0,.627,2.409,5.824,5.824,0,0,0,2.182,1.893,24.027,24.027,0,0,0,4.251,1.723c1.8.576,4.076,1.156,6.84,1.764a99.738,99.738,0,0,1,12.461,3.5,37.4,37.4,0,0,1,9.469,4.871,19.6,19.6,0,0,1,5.975,6.938A21.213,21.213,0,0,1,158.8,57v.233a24.713,24.713,0,0,1-2.357,11.008,23.74,23.74,0,0,1-6.6,8.2,29.9,29.9,0,0,1-10.22,5.162,47.031,47.031,0,0,1-13.326,1.77" transform="translate(6.364 0.015)"/>
        <path id="パス_1502" data-name="パス 1502" d="M207.467,83.612a44.467,44.467,0,0,1-17.235-3.281,42.235,42.235,0,0,1-13.663-8.895,41.352,41.352,0,0,1-9.024-13.21,40.362,40.362,0,0,1-3.269-16.186v-.234a40.959,40.959,0,0,1,12.4-29.579,43.484,43.484,0,0,1,13.785-8.952,46.944,46.944,0,0,1,34.455,0,42.568,42.568,0,0,1,13.675,8.894A41.267,41.267,0,0,1,247.6,25.387a40.479,40.479,0,0,1,3.276,16.187v.233a40.962,40.962,0,0,1-12.416,29.579,43.218,43.218,0,0,1-13.778,8.946,44.377,44.377,0,0,1-17.22,3.281m.167-20.1a20.118,20.118,0,0,0,8.411-1.718,19.3,19.3,0,0,0,6.446-4.663,21.311,21.311,0,0,0,4.147-6.821,22.954,22.954,0,0,0,1.5-8.268v-.234a23.014,23.014,0,0,0-1.5-8.274,20.958,20.958,0,0,0-10.826-11.654,20.868,20.868,0,0,0-16.756-.051,20.2,20.2,0,0,0-6.46,4.645,20.546,20.546,0,0,0-4.141,6.834,23.709,23.709,0,0,0-1.438,8.268v.233a22.986,22.986,0,0,0,1.5,8.269,21.717,21.717,0,0,0,4.212,6.9,20.156,20.156,0,0,0,6.5,4.754,19.578,19.578,0,0,0,8.411,1.783" transform="translate(11.797 0)"/>
        <rect id="長方形_728" data-name="長方形 728" width="22.401" height="80.389" transform="translate(277.598 1.609)"/>
      </g>
    </g>
  </g>
</svg>
